<svg id="undraw_programming_2svr" xmlns="http://www.w3.org/2000/svg" xmlns:xlink="http://www.w3.org/1999/xlink"
  width="546.576" height="244.091" viewBox="0 0 646.576 344.091">
  <defs>
    <linearGradient id="linear-gradient" x1="0.5" y1="1" x2="0.5" y2="-0.001" gradientUnits="objectBoundingBox">
      <stop offset="0" stop-color="gray" stop-opacity="0.251" />
      <stop offset="0.54" stop-color="gray" stop-opacity="0.122" />
      <stop offset="1" stop-color="gray" stop-opacity="0.102" />
    </linearGradient>
  </defs>
  <path id="Path_5" data-name="Path 5"
    d="M676.371,445.028q-1.08,2.329-2.155,4.6-1.677,3.521-3.31,6.9c-.484,1-.969,1.981-1.441,2.962-5.34,10.91-10.326,20.559-14.561,28.5a45.459,45.459,0,0,1-39.622,24.031l-94.167,1.025h-.993l-8.072.087-6.9.075-21.174.23h-.857l-10.78.118h-.329l-66.441.72-59.307.621-6.9.075-42.845.466h-.05l-27.787.3h-.3l-87.864.95-26.285.286a54.687,54.687,0,0,1-16.561-2.372A53.643,53.643,0,0,1,113.4,499.224a124.154,124.154,0,0,1-25.043-42.7q-1.2-3.409-2.235-6.9c-19.131-64.671,4.191-148.108,46.167-203.943q2.639-3.5,5.365-6.83l.043-.05c12.909-15.847,27.384-29.085,42.8-38.5,27.322-16.71,57.593-21.416,87.367-7.389,25.192,11.872,48.713,17.455,71.514,18.97,2.3.149,4.607.261,6.9.329,52.3,1.646,101.32-17.2,158.881-29.365,2.291-.484,4.589-.962,6.9-1.416,41.063-8.172,86.616-12.481,140.787-3.421a117.414,117.414,0,0,1,16.616,3.974q3.583,1.155,6.9,2.484c25.856,10.519,39.958,29.954,45.95,54.308q.851,3.39,1.472,6.9C734.417,304.253,703.3,387.348,676.371,445.028Z"
    transform="translate(-79.351 -172.945)" fill="#15c366" opacity="0.1" />
  <g id="Group_1" data-name="Group 1" transform="translate(6.768 8.467)" opacity="0.1">
    <path id="Path_6" data-name="Path 6"
      d="M216.085,217V533.446l-26.285.286a54.69,54.69,0,0,1-16.561-2.372V255.5h.043C186.193,239.633,200.667,226.395,216.085,217Z"
      transform="translate(-121.708 -198.111)" fill="#15c366" />
    <path id="Path_7" data-name="Path 7"
      d="M756.138,285.88H164.6q2.639-3.5,5.365-6.83V279h584.7Q755.517,282.372,756.138,285.88Z"
      transform="translate(-118.433 -221.612)" fill="#15c366" />
    <path id="Path_8" data-name="Path 8"
      d="M1036.6,189.979V455.122h-2.155q-1.677,3.521-3.31,6.9c-.484,1-.969,1.981-1.441,2.962V187.47Q1033.283,188.625,1036.6,189.979Z"
      transform="translate(-446.353 -186.917)" fill="#15c366" />
    <path id="Path_9" data-name="Path 9"
      d="M771.995,186.58V518.32l-6.9.075V188C767.381,187.511,769.679,187.033,771.995,186.58Z"
      transform="translate(-346.051 -186.58)" fill="#15c366" />
    <path id="Path_10" data-name="Path 10"
      d="M505.009,235.949V538.71l-6.9.074V235.62C500.414,235.769,502.718,235.856,505.009,235.949Z"
      transform="translate(-244.851 -205.169)" fill="#15c366" />
    <path id="Path_11" data-name="Path 11" d="M678.348,618.52q-1.677,3.521-3.31,6.9H92.485q-1.2-3.409-2.235-6.9Z"
      transform="translate(-90.25 -350.309)" fill="#15c366" />
  </g>
  <rect id="Rectangle_3" data-name="Rectangle 3" width="11.798" height="35.804" transform="translate(131.385 165.044)"
    fill="#3f3d56" />
  <rect id="Rectangle_4" data-name="Rectangle 4" width="11.798" height="37.878" transform="translate(448.893 163.181)"
    fill="#3f3d56" />
  <path id="Path_12" data-name="Path 12"
    d="M576.156,522.847v8.072l-94.334.869-1.006.019-35.853.329-.857.013-10.9.093h-.323l-66.429.615-109.044,1.012h-.093l-27.725.261-.3.006-123.2,1.13v-9.314l28.967-17.387,58.12-.484,1.242-.006.41-.006,1.242-.019,27.905-.23,1.248-.006.4-.006,1.242-.006,8.948-.074.236-.006,22.075-.186h.18l172.25-1.453,4.216-.031h.422l3.217-.031,23.379-.193,1.242-.019,1.149-.012h.6l7.271-.056,1.441-.019,1.931-.012,6.054-.056,9.606-.081,1.242-.012,2.161-.012h.4l46.391-.4Z"
    transform="translate(-40.224 -191.501)" fill="#65617d" />
  <path id="Path_13" data-name="Path 13"
    d="M576.156,522.847v8.072l-94.334.869-1.006.019-35.853.329-.857.013-10.9.093h-.323l-66.429.615-109.044,1.012h-.093l-27.725.261-.3.006-123.2,1.13v-9.314l28.967-17.387,58.12-.484,1.242-.006.41-.006,1.242-.019,27.905-.23,1.248-.006.4-.006,1.242-.006,8.948-.074.236-.006,22.075-.186h.18l172.25-1.453,4.216-.031h.422l3.217-.031,23.379-.193,1.242-.019,1.149-.012h.6l7.271-.056,1.441-.019,1.931-.012,6.054-.056,9.606-.081,1.242-.012,2.161-.012h.4l46.391-.4Z"
    transform="translate(-40.224 -191.501)" opacity="0.2" />
  <path id="Path_14" data-name="Path 14"
    d="M357.56,656.57v15.207a3.806,3.806,0,0,1-2.173,3.44,3.727,3.727,0,0,1-1.552.373l-21.671.46a3.726,3.726,0,0,1-1.677-.354,3.8,3.8,0,0,1-2.217-3.459V656.57Z"
    transform="translate(-173.705 -356.265)" fill="#3f3d56" />
  <path id="Path_15" data-name="Path 15"
    d="M357.56,656.57v15.207a3.806,3.806,0,0,1-2.173,3.44,3.727,3.727,0,0,1-1.552.373l-21.671.46a3.726,3.726,0,0,1-1.677-.354,3.8,3.8,0,0,1-2.217-3.459V656.57Z"
    transform="translate(-173.705 -356.265)" opacity="0.1" />
  <path id="Path_16" data-name="Path 16"
    d="M359.56,656.57v15.207a3.806,3.806,0,0,1-2.173,3.44,3.727,3.727,0,0,1-1.552.373l-21.671.46a3.726,3.726,0,0,1-1.677-.354,3.8,3.8,0,0,1-2.217-3.459V656.57Z"
    transform="translate(-174.463 -356.265)" fill="#3f3d56" />
  <rect id="Rectangle_5" data-name="Rectangle 5" width="29.29" height="19.56" transform="translate(422.814 300.305)"
    fill="#3f3d56" />
  <rect id="Rectangle_6" data-name="Rectangle 6" width="29.29" height="19.56" transform="translate(422.814 300.305)"
    opacity="0.1" />
  <rect id="Rectangle_7" data-name="Rectangle 7" width="29.29" height="19.56" transform="translate(421.572 300.305)"
    fill="#3f3d56" />
  <path id="Path_17" data-name="Path 17" d="M223.4,265.82v3.558l-11.8-.3V265.82Z"
    transform="translate(-80.215 -100.782)" opacity="0.1" />
  <path id="Path_18" data-name="Path 18"
    d="M352.492,270.749,338.316,372.584a2.67,2.67,0,0,1-2.713,2.3l-113.509-2.943-2.155-.056a2.67,2.67,0,0,1-2.583-3.024l15.915-106.6a2.67,2.67,0,0,1,2.819-2.254l113.919,7.712a2.664,2.664,0,0,1,2.484,3.03Z"
    transform="translate(-131.653 -205.944)" fill="#65617d" />
  <path id="Path_19" data-name="Path 19" d="M168.6,99.16l-12,93.968,104.319,3.31,12.829-90.658Z"
    transform="translate(-59.367 -37.609)" fill="#f6d4c5" />
  <rect id="Rectangle_8" data-name="Rectangle 8" width="127.089" height="107.628" rx="5.33"
    transform="translate(238.809 60.098)" fill="#65617d" />
  <rect id="Rectangle_9" data-name="Rectangle 9" width="115.496" height="89.621" transform="translate(244.807 67.345)"
    fill="#d8d8d8" />
  <path id="Path_20" data-name="Path 20" d="M734.728,262.82v2.353l-11.8.242v-2.6Z"
    transform="translate(-274.036 -99.645)" opacity="0.1" />
  <path id="Path_21" data-name="Path 21"
    d="M827.613,365.955a1.912,1.912,0,0,1-1.863,2.037l-116.241,2.4a1.912,1.912,0,0,1-1.944-1.732l-9.991-103.872a1.912,1.912,0,0,1,1.813-2.093l115.359-5.738,1.242-.062a1.906,1.906,0,0,1,2,1.739Z"
    transform="translate(-313.688 -204.767)" fill="#65617d" />
  <path id="Path_22" data-name="Path 22" d="M628.93,100,734.286,94.82l8.9,94.384L638.66,191.688Z"
    transform="translate(-238.405 -35.964)" fill="#fefa8a" />
  <path id="Path_23" data-name="Path 23"
    d="M899.146,365.955a1.912,1.912,0,0,1-1.863,2.037l-11-111.031,1.242-.062a1.906,1.906,0,0,1,2,1.739Z"
    transform="translate(-385.221 -204.767)" opacity="0.1" />
  <path id="Path_24" data-name="Path 24"
    d="M236.108,260,222.093,371.94l-2.155-.056a2.67,2.67,0,0,1-2.583-3.024l15.915-106.6A2.67,2.67,0,0,1,236.108,260Z"
    transform="translate(-131.653 -205.939)" opacity="0.1" />
  <rect id="Rectangle_10" data-name="Rectangle 10" width="11.798" height="10.606" transform="translate(131.385 190.242)"
    opacity="0.1" />
  <path id="Path_25" data-name="Path 25" d="M280.22,483.65v3.086l-29.29.782V483.65Z"
    transform="translate(-95.123 -183.351)" opacity="0.1" />
  <path id="Path_26" data-name="Path 26"
    d="M385.069,483.773V588.216a2.484,2.484,0,0,1-2.391,2.453l-119,3.167h-.031a2.484,2.484,0,0,1-2.453-2.453V483.773a2.484,2.484,0,0,1,2.453-2.453H382.616a2.484,2.484,0,0,1,2.453,2.453Z"
    transform="translate(-148.278 -289.836)" fill="#65617d" />
  <path id="Path_27" data-name="Path 27"
    d="M263.674,481.32V593.835h-.031a2.484,2.484,0,0,1-2.453-2.453V483.773a2.484,2.484,0,0,1,2.453-2.453Z"
    transform="translate(-148.278 -289.836)" opacity="0.1" />
  <path id="Path_28" data-name="Path 28" d="M194.6,319.15H304.818v92.055L194.6,413.689Z"
    transform="translate(-73.771 -120.997)" fill="#d4dfec" />
  <rect id="Rectangle_11" data-name="Rectangle 11" width="11.798" height="10.817" transform="translate(448.893 190.242)"
    opacity="0.1" />
  <path id="Path_29" data-name="Path 29" d="M708.22,483.65v3.98l-29.29-.782v-3.2Z"
    transform="translate(-257.358 -183.351)" opacity="0.1" />
  <path id="Path_30" data-name="Path 30"
    d="M792.054,483.773v107.61a2.484,2.484,0,0,1-2.484,2.453h0l-119.029-3.167a2.484,2.484,0,0,1-2.391-2.453V483.773a2.484,2.484,0,0,1,2.453-2.453H789.576A2.484,2.484,0,0,1,792.054,483.773Z"
    transform="translate(-302.538 -289.836)" fill="#65617d" />
  <path id="Path_31" data-name="Path 31"
    d="M866.174,483.773v107.61a2.484,2.484,0,0,1-2.484,2.453h0V481.32h0a2.484,2.484,0,0,1,2.484,2.453Z"
    transform="translate(-376.658 -289.836)" opacity="0.1" />
  <path id="Path_32" data-name="Path 32" d="M708.318,319.15H598.1v92.055l110.218,2.484Z"
    transform="translate(-226.719 -120.997)" fill="#d4dfec" />
  <path id="Path_33" data-name="Path 33"
    d="M587.569,483.773V588.216a2.484,2.484,0,0,1-2.391,2.453l-119,3.167h0a2.484,2.484,0,0,1-2.484-2.453V483.773a2.484,2.484,0,0,1,2.453-2.453H585.116A2.484,2.484,0,0,1,587.569,483.773Z"
    transform="translate(-225.036 -289.836)" fill="#65617d" />
  <path id="Path_34" data-name="Path 34" d="M397.1,319.15H507.318v92.055L397.1,413.689Z"
    transform="translate(-150.529 -120.997)" fill="#d4dfec" />
  <path id="Path_35" data-name="Path 35"
    d="M576.156,533.65v8.072l-94.334.869-1.006.019-35.853.329-.857.012-10.9.093h-.323l-66.429.615-109.044,1.012h-.093l-27.725.261-.3.006-123.2,1.13v-9.314l125.748-.826h.3l25.453-.174h.118l175.777-1.161h.18l.105-.006h.292l2.974-.019h.906l46.254-.31,2.732-.012.609-.006Z"
    transform="translate(-40.224 -202.304)" opacity="0.1" />
  <ellipse id="Ellipse_3" data-name="Ellipse 3" cx="31.873" cy="31.873" rx="31.873" ry="31.873"
    transform="translate(270.682 137.102)" fill="#fbbebe" />
  <path id="Path_36" data-name="Path 36"
    d="M383.74,582.146a.769.769,0,0,1,.062-.217c.621-2.229,1.726-6,2.552-9.01.106-.373.2-.739.3-1.087.913-3.4,2.689-11.351,3.676-16.312.348-1.745.621-3.1.677-3.788.124-1.049,1.993-5.539,4.111-10.7,1.484-3.626,3.1-7.588,4.291-10.929a38.114,38.114,0,0,0,1.819-6.116,3.168,3.168,0,0,0,0-1.323,9.119,9.119,0,0,1-.3-2.173h0c-.143-3.85,1.006-9.935,2.782-12.487,2.173-3.1,3.726-14.692,3.726-14.692s3.217.466,3.726-2.192a3.821,3.821,0,0,0,.062-.869,4.592,4.592,0,0,0-.056-.689c-.553-3.875,9.14-8,14.592-8.886a12.2,12.2,0,0,1,1.863-.174,16.915,16.915,0,0,0,3.881-.894q.869-.267,1.863-.621c2.285-.77,5.017-1.788,7.917-2.906,10.9-4.229,24.105-9.935,24.105-9.935.093-.441.2-.863.317-1.279a17.206,17.206,0,0,1,10.152-11.754h0v-1.242c0-2.142-.093-4.347-.186-6.545,0-.428-.037-.857-.062-1.285v-.7c0-.435-.044-.869-.068-1.3l-.112-.087a10.19,10.19,0,0,1-2.422-2.608,9.479,9.479,0,0,1-.882-1.863,56.912,56.912,0,0,1-1.478-6.675l-.112-.46a52.163,52.163,0,0,0-2.484-6.57c-1.372-3.366-2.428-6.83-3.477-10.339q-.956-3.185-1.931-6.383l-.981-3.254c-.186-.621-.373-1.242-.515-1.863h0a8.217,8.217,0,0,1-.161-.869h0a6.209,6.209,0,0,1,.149-2.863,19.93,19.93,0,0,1,.82-1.863,4.892,4.892,0,0,0,.311-.857h0a1.89,1.89,0,0,0,.05-.2,3.507,3.507,0,0,0,.068-.671,11.462,11.462,0,0,0-.323-2.415.044.044,0,0,1,0-.031,1.587,1.587,0,0,0-.031-.168,15.833,15.833,0,0,1-.224-1.863,17.667,17.667,0,0,1,2.155-9.668l.118-.224a15.665,15.665,0,0,1,1.143-1.726h0a8.717,8.717,0,0,1,.621-.758,2.479,2.479,0,0,1-3.446-.894,2.377,2.377,0,0,1-.143-.279c-.031-.074-.056-.155-.081-.236a5.074,5.074,0,0,1,1.316-4.378,11.482,11.482,0,0,1,3.564-2.918h0a2.384,2.384,0,0,1,.248-.13,10.63,10.63,0,0,1,1.639-.658h0a9.368,9.368,0,0,1,1.012-.273l-2.3-.211-.931-.087a9,9,0,0,1,8.072-6.775h.671a7.278,7.278,0,0,1,.975.081,2.757,2.757,0,0,1-1.645-2.689,8.947,8.947,0,0,0,5.706,1.9h.236a18.644,18.644,0,0,1-.211-2.03h0a20.6,20.6,0,0,1,0-2.769,5.241,5.241,0,0,0,4.21,1.4l-1.292-1.8a5.893,5.893,0,0,0,4.073,1.273l.3-.031a4.342,4.342,0,0,0,.739-.143h.056c-.118-.149-.224-.3-.329-.466l-.037-.075a6.012,6.012,0,0,1-.621-1.3,4.1,4.1,0,0,1-.149-.54h0a5.434,5.434,0,0,1,.279-3.384c2.006,1.677,4.2,3.968,6.83,2.235s2.714-4.912,6.83-4.589a6.334,6.334,0,0,1,5.222,3.8,4.191,4.191,0,0,1,4.763-1.087A4.253,4.253,0,0,1,513.8,355c1.708-.428,3.546-.851,5.185-.2s2.695,2.738,1.763,4.135a.882.882,0,0,1-.087.124c-.764.987-2.453,1.528-2.273,2.769l.261.186.807.584q4.75,3.428,9.252,7.2c1.54,1.292,3.179,2.844,3.285,4.862a5.366,5.366,0,0,1-.149,1.472h0c-.1.484-.236.969-.341,1.453a12.118,12.118,0,0,0-.211,3.757h0c.044.366.1.727.168,1.093.95,4.8,4.787,8.762,5.166,13.661v.348a11.03,11.03,0,0,1-.044,1.571c-.286,2.981-1.664,5.843-2.782,8.693-.068.174-.136.348-.2.522a86.5,86.5,0,0,0-4.347,17.486,62.222,62.222,0,0,1-1.242,6.265,16.6,16.6,0,0,1-3.161,6.476,10.066,10.066,0,0,1-2.086,1.863,11.6,11.6,0,0,1-1.646.875v.037c.068.379.124.758.192,1.136.037.2.068.4.106.621h0a.087.087,0,0,0,0,.037c.522,2.937,1.118,5.812,1.745,8.544l.317,1.36c7.824,2.825,8.749,8.613,8.805,10.829a5.987,5.987,0,0,1,0,.888s11.8.311,16.455,3.726a12.629,12.629,0,0,0,2.8,1.428,51.554,51.554,0,0,0,5.744,1.794c1,.261,2.043.515,3.1.764,1.863.428,3.838.844,5.744,1.242,5.086,1.025,9.873,1.863,12.3,2.484,5.793,1.465,19.044,14.17,19.044,14.17s1.552,12.816,3.1,14.685,4.347,8.439,4.347,8.439l10.27,18.262,4.347,7.681h2.794a4.751,4.751,0,0,1,1.993,1.3c.739.658,1.559,1.478,2.279,2.223l1.192,1.273.745.826s4.514.112,5.738,3.682c3.676-.106,8.19.137,11.351,1.552a8.776,8.776,0,0,1,1.242.671,5.39,5.39,0,0,1,2.564,3.515,5.2,5.2,0,0,1,.112.894v1.056c-.224,4.7-3.285,8.612-6.1,11.245l.2.354s-.093.224-.273.621c-.05.118-.112.248-.18.4h0c-.366.782-.95,1.956-1.714,3.328a39.319,39.319,0,0,1-5.943,8.178l-.18.186-35.853.329-.105-.124-6.955-8.3L589,567.411l-.105-.13-.1.987-.335,3.291-.807,7.954-.043.4v.106l-.093.919.068-.919h-.18l-66.441.621-109.05,1.2v.522h-.087v-.522l-27.787.3Z"
    transform="translate(-194.731 -239.294)" fill="url(#linear-gradient)" />
  <path id="Path_37" data-name="Path 37"
    d="M583.583,508.363s-61.784,7.451-55.885,0c2.136-2.695,2.726-10.68,2.608-19.777-.037-2.763-.137-5.626-.279-8.476C529.343,466.45,527.7,453.1,527.7,453.1s54.022-25.459,47.813-5.278c-2.484,8.153-1.67,19.6.217,30.352.553,3.136,1.192,6.209,1.863,9.128a214.01,214.01,0,0,0,5.992,21.063Z"
    transform="translate(-249.148 -274.189)" fill="#fbbebe" />
  <path id="Path_38" data-name="Path 38"
    d="M583.583,536.312s-61.784,7.451-55.885,0c2.136-2.695,2.726-10.68,2.608-19.777,9.42-4.024,21.4-1.025,21.4-1.025,12.617-2.515,20.708-2.024,25.881-.261A214,214,0,0,0,583.583,536.312Z"
    transform="translate(-249.148 -302.138)" opacity="0.1" />
  <path id="Path_39" data-name="Path 39"
    d="M412.057,645.952v-.522l109.051-1.186,66.441-.621h.186l-.068.919.093-.919h.118v-.105l.851-8.352.323-3.161.1-.987.087-.826,3.838-12.8,3.837-12.779,3.229-10.761,4.93-16.443s-2.794-6.52-4.347-8.383-3.1-14.592-3.1-14.592-13.251-12.624-19.044-14.077c-2.428-.621-7.222-1.447-12.313-2.484-1.906-.385-3.862-.795-5.744-1.242-1.062-.242-2.1-.5-3.1-.751a54.554,54.554,0,0,1-5.744-1.776,12.852,12.852,0,0,1-2.794-1.422c-4.564-3.347-16-3.726-16.443-3.726h0a.247.247,0,0,1,0-.044v-.056a6.36,6.36,0,0,0,0-.782,4.982,4.982,0,0,0-.056-.869.784.784,0,0,0-.043-.31c-.031-.223-.068-.459-.124-.708a3.083,3.083,0,0,0-.075-.329,10.684,10.684,0,0,0-.776-2.167c-.043-.1-.1-.2-.149-.3a11.348,11.348,0,0,0-1.056-1.633c-.081-.105-.168-.217-.261-.323a12.154,12.154,0,0,0-1.689-1.639c-.168-.13-.342-.267-.522-.391a2.9,2.9,0,0,0-.317-.224l-.553-.36-.515-.3c-.453-.248-.932-.491-1.453-.72-.161-.075-.335-.143-.509-.211s-.447-.174-.677-.261h-.037l-.466-.186c-.354-.118-.714-.224-1.093-.329l-.577-.149-.621-.143-.621-.13c-.621-.124-1.285-.236-1.981-.323l-.708-.087-.727-.074-.751-.062-1.068-.062-1.242-.043a77.437,77.437,0,0,0-16.3,1.734,44.878,44.878,0,0,0-11.331-1.045h-.54l-.621.037h-.4l-.8.074a5.949,5.949,0,0,0-.807.093c-.267.037-.546.068-.813.112l-.41.068c-.4.068-.813.143-1.242.23q-.205.037-.41.093c-.54.118-1.08.261-1.614.422-.267.074-.534.161-.8.255-.137.037-.267.087-.4.137l-.4.143-.391.155-.466.186c-.236.1-.466.2-.7.317-.13.056-.261.118-.385.186s-.255.124-.373.193a17.23,17.23,0,0,0-3.856,2.72l-.317.3-.31.317c-.106.106-.2.217-.3.329a14.77,14.77,0,0,0-1.13,1.4c-.1.13-.193.261-.286.4a16.576,16.576,0,0,0-1.068,1.813c-.081.149-.155.3-.23.453a20.306,20.306,0,0,0-1.242,3.26q-.174.621-.317,1.242s-13.145,5.8-24.049,10c-2.9,1.118-5.632,2.13-7.917,2.894-.664.224-1.285.428-1.863.621a16.579,16.579,0,0,1-3.881.894,12.2,12.2,0,0,0-1.863.174c-5.011.813-13.6,4.347-14.536,7.892a2.291,2.291,0,0,0-.062.869v.068c.621,4.347-3.726,3.726-3.726,3.726s-1.552,11.488-3.726,14.592c-1.571,2.235-2.645,7.222-2.782,10.985h0a12.174,12.174,0,0,0,.273,3.5v.087c.248.832-.348,3.1-1.36,6.017-1.1,3.2-2.7,7.172-4.241,10.922-2.322,5.663-4.508,10.8-4.645,11.935-.056.5-.217,1.4-.441,2.565-.907,4.732-2.918,13.741-3.912,17.386-.739,2.72-1.813,6.445-2.552,9a.871.871,0,0,1-.062.217l27.837-.273v.522h.087Z"
    transform="translate(-194.894 -302.883)" fill="#009555" />
  <path id="Path_40" data-name="Path 40" d="M445.44,607.57s35.394,18.318,48.123,16.145Z"
    transform="translate(-218.119 -337.692)" opacity="0.1" />
  <path id="Path_41" data-name="Path 41" d="M561.44,595.57s34.462,11.177,45.95,12.73S561.44,595.57,561.44,595.57Z"
    transform="translate(-262.089 -333.143)" opacity="0.1" />
  <path id="Path_42" data-name="Path 42"
    d="M582.365,530.115c-18.007,3.316-51.911,2.6-66.565,2.1,5.371-19.249,31.563-12.7,31.563-12.7C579.782,513.039,582.266,526.464,582.365,530.115Z"
    transform="translate(-244.789 -303.653)" opacity="0.1" />
  <path id="Path_43" data-name="Path 43"
    d="M582.365,528.115c-18.007,3.316-51.911,2.6-66.565,2.1,5.371-19.249,31.563-12.7,31.563-12.7C579.782,511.039,582.266,524.464,582.365,528.115Z"
    transform="translate(-244.789 -302.895)" fill="#009555" />
  <path id="Path_44" data-name="Path 44" d="M776.94,671.983s21.212-3.26,21.628,6.054-10.817,15.822-10.817,15.822Z"
    transform="translate(-343.775 -361.898)" fill="#fbbebe" />
  <path id="Path_45" data-name="Path 45"
    d="M575.947,478.173a29.212,29.212,0,0,1-2.794,1.081c-6.694,2.31-13.443,4.638-20.491,5.483s-14.443.1-20.59-3.415a17.839,17.839,0,0,1-1.863-1.211c-.683-13.661-2.329-27.011-2.329-27.011s54.022-25.459,47.813-5.278C573.221,455.974,574.06,467.424,575.947,478.173Z"
    transform="translate(-249.368 -274.189)" opacity="0.1" />
  <path id="Path_46" data-name="Path 46"
    d="M535.615,359.917a5.88,5.88,0,0,1-5.166-1.087l1.292,1.795a5.26,5.26,0,0,1-4.21-1.4,21.162,21.162,0,0,0,.2,4.812,9.017,9.017,0,0,1-5.936-1.863,2.745,2.745,0,0,0,1.639,2.676,8.9,8.9,0,0,0-9.687,6.65l3.241.3a11.468,11.468,0,0,0-6.483,3.955,5.023,5.023,0,0,0-1.316,4.347c.435,1.515,2.533,2.484,3.676,1.4a17.349,17.349,0,0,0-3.788,14.151,8.986,8.986,0,0,1,.286,3.266,27.692,27.692,0,0,1-1.174,2.912c-.621,1.813-.031,3.782.522,5.589L511.622,417c1.056,3.459,2.105,6.923,3.484,10.27a50.963,50.963,0,0,1,2.484,6.526c.782,3.005.813,6.3,2.484,8.923a12.376,12.376,0,0,0,4.458,3.931c6.141,3.514,13.561,4.26,20.591,3.415s13.773-3.173,20.46-5.483a19.247,19.247,0,0,0,4.247-1.863c4.626-3.03,5.657-9.227,6.52-14.685a83.39,83.39,0,0,1,4.527-17.883c1.354-3.409,3.1-6.868,2.807-10.519-.379-4.85-4.216-8.78-5.166-13.549a11.8,11.8,0,0,1,.043-4.825,10.961,10.961,0,0,0,.491-2.918c-.106-2-1.745-3.539-3.285-4.825q-5.011-4.185-10.345-7.911c-.18-1.242,1.509-1.776,2.273-2.757,1.08-1.385-.037-3.583-1.677-4.229s-3.477-.224-5.185.2a4.092,4.092,0,0,0-7.172-3.173,6.334,6.334,0,0,0-5.228-3.775c-4.117-.323-4.2,2.825-6.83,4.558s-4.806-.553-6.83-2.217A5.763,5.763,0,0,0,535.615,359.917Z"
    transform="translate(-241.803 -240.761)" fill="#3f3d56" />
  <path id="Path_47" data-name="Path 47"
    d="M765.377,666.408s-.553,1.316-1.571,3.223a42.839,42.839,0,0,1-5.589,8.178l-.168.18h-1.006l-35.853.329h-.857l-.105-.124-6.955-8.252-2.62-3.111-.105-.13-.224-.261-.124-.149-.161-.192-5.1-6.048,1.863-7.762,3.173-13.077.081-.317.621-2.484.441-1.863,1.478-6.073,5.067-20.895,9,4.657L736.161,629l5.1,9h2.794c.528,0,1.739,1.018,2.956,2.192.435.416.869.857,1.242,1.242,1.105,1.143,1.981,2.124,1.981,2.124s4.527.1,5.744,3.664a4.346,4.346,0,0,1,.155.528,25.033,25.033,0,0,0,1.571,4.073c.8,1.745,1.807,3.726,2.825,5.706,1.894,3.633,3.819,7.091,4.527,8.346l.087.155Z"
    transform="translate(-316.483 -337.695)" fill="#009555" />
  <path id="Path_48" data-name="Path 48"
    d="M607.43,652.759l-.062.888v.062l-.106,1.428-.826,11.494-1,13.847-.286,3.9-.621,8.346v.106l-66.441.621-109.032,1.18v.522h-.087v-.7l.279-8.917.534-17.424.459-14.772.043-1.472a6.538,6.538,0,0,1,7.091-6.315c2.931.248,6.737.553,11.289.875l1.863.137c26.285,1.826,74.861,4.185,123.879,1.242,1.031-.056,2.068-.118,3.1-.193,7.6-.478,15.195-1.093,22.714-1.863a6.538,6.538,0,0,1,7.2,6.973Z"
    transform="translate(-211.876 -352.081)" opacity="0.1" />
  <path id="Path_49" data-name="Path 49"
    d="M429.08,696.678v-.522l109.051-1.186,66.441-.621h.186v-.105l.621-8.346.267-3.726,1.018-14.039.8-11.115v-.273a6.6,6.6,0,0,0-.068-1.534.186.186,0,0,0,0-.062,6.453,6.453,0,0,0-1.242-2.881,6.545,6.545,0,0,0-5.849-2.484c-7.52.77-15.114,1.385-22.714,1.863-1.037.074-2.074.137-3.1.192-49.017,2.912-97.594.553-123.879-1.242l-1.863-.137c-4.552-.323-8.358-.621-11.289-.875a6.545,6.545,0,0,0-6.979,5.3,6.834,6.834,0,0,0-.112,1.018l-.422,13.76-.578,17.43-.273,8.917v.7Z"
    transform="translate(-211.917 -353.609)" fill="#3f3d56" />
  <path id="Path_50" data-name="Path 50"
    d="M607.669,661.488l-.764,9.519L605.769,685.2l-.286,3.552-.621,7.954-.037.4v.105h0l-.093.919.068-.919h-.18l-66.441.621-109.069,1.18v-.174l.3-8.917.621-17.424.4-11.581a3.949,3.949,0,0,1,1.9-3.26,3.881,3.881,0,0,1,2.347-.559c1.3.106,2.906.23,4.775.366,3.036.224,6.781.484,11.14.758,8.072.509,18.2,1.056,29.805,1.5,32.289,1.242,75.88,1.658,117.284-1.968,1.863-.161,3.788-.341,5.669-.522a3.887,3.887,0,0,1,2.161.41,3.207,3.207,0,0,1,.534.335,3.812,3.812,0,0,1,1.242,1.528,2.207,2.207,0,0,1,.155.379A3.9,3.9,0,0,1,607.669,661.488Z"
    transform="translate(-211.929 -356.458)" opacity="0.1" />
  <path id="Path_51" data-name="Path 51"
    d="M359.56,677.87v1.981a3.806,3.806,0,0,1-2.173,3.44l-24.9.478a3.8,3.8,0,0,1-2.217-3.459v-1.863Z"
    transform="translate(-174.463 -364.339)" opacity="0.1" />
  <path id="Path_52" data-name="Path 52" d="M278.794,512.284l-32.444.621v-5.384l32.444-.621Z"
    transform="translate(-93.387 -192.164)" fill="#3f3d56" />
  <path id="Path_53" data-name="Path 53" d="M278.794,512.284l-32.444.621v-5.384l32.444-.621Z"
    transform="translate(-93.387 -192.164)" opacity="0.1" />
  <path id="Path_54" data-name="Path 54" d="M280.794,512.284l-32.444.621v-5.384l32.444-.621Z"
    transform="translate(-94.145 -192.164)" fill="#3f3d56" />
  <g id="Group_2" data-name="Group 2" transform="translate(266.369 114.425)" opacity="0.1">
    <path id="Path_55" data-name="Path 55"
      d="M552.171,359.915A6.055,6.055,0,0,1,551,357.22a5.893,5.893,0,0,0,.261,2.856A5.59,5.59,0,0,0,552.171,359.915Z"
      transform="translate(-524.473 -357.22)" />
    <path id="Path_56" data-name="Path 56" d="M540.09,366.8a21.847,21.847,0,0,1-.23-2.3c0,.764,0,1.534,0,2.3Z"
      transform="translate(-520.278 -359.98)" />
    <path id="Path_57" data-name="Path 57"
      d="M621.7,398.386a11.373,11.373,0,0,1,.224-1.645,11.178,11.178,0,0,0,.5-2.912,3.831,3.831,0,0,0-.1-.658c-.106.571-.273,1.143-.4,1.708a11.882,11.882,0,0,0-.224,3.508Z"
      transform="translate(-551.285 -370.847)" />
    <path id="Path_58" data-name="Path 58"
      d="M600.922,368.748l.677.491a12.241,12.241,0,0,0,1.6-1.379,2.279,2.279,0,0,0,.236-2.26,1.862,1.862,0,0,1-.236.4C602.431,366.979,600.742,367.519,600.922,368.748Z"
      transform="translate(-543.419 -360.397)" />
    <path id="Path_59" data-name="Path 59" d="M518.43,380.29a7.653,7.653,0,0,0-.54,1.416,11.279,11.279,0,0,1,3.1-1.174Z"
      transform="translate(-511.95 -365.965)" />
    <path id="Path_60" data-name="Path 60"
      d="M531.834,368.944a9.2,9.2,0,0,1-1.167-.764,2.645,2.645,0,0,0,.056.733A7.381,7.381,0,0,1,531.834,368.944Z"
      transform="translate(-516.791 -361.375)" />
    <path id="Path_61" data-name="Path 61"
      d="M584.077,428.33c-.255,3.012-1.658,5.911-2.794,8.768a83.351,83.351,0,0,0-4.527,17.889c-.863,5.458-1.863,11.655-6.52,14.679A18.631,18.631,0,0,1,566,471.529c-6.694,2.316-13.444,4.638-20.491,5.483s-14.443.106-20.591-3.409a12.419,12.419,0,0,1-4.458-3.931c-1.658-2.627-1.689-5.918-2.484-8.923a51.052,51.052,0,0,0-2.484-6.532c-1.372-3.341-2.428-6.83-3.477-10.264q-1.459-4.787-2.912-9.581a17.883,17.883,0,0,1-.708-2.949,11.128,11.128,0,0,0,.708,4.812q1.453,4.8,2.912,9.581c1.049,3.459,2.105,6.924,3.477,10.264a51.05,51.05,0,0,1,2.484,6.532c.782,3.005.814,6.3,2.484,8.923a12.419,12.419,0,0,0,4.458,3.931c6.147,3.515,13.562,4.253,20.591,3.409s13.773-3.167,20.491-5.483a18.626,18.626,0,0,0,4.241-1.863c4.626-3.024,5.657-9.221,6.52-14.679a83.352,83.352,0,0,1,4.527-17.889c1.354-3.4,3.1-6.861,2.807-10.519C584.09,428.4,584.077,428.367,584.077,428.33Z"
      transform="translate(-508.325 -384.175)" />
    <path id="Path_62" data-name="Path 62"
      d="M510.292,421.17V421.1a8.692,8.692,0,0,0-.286-3.26,16.513,16.513,0,0,1-.242-2.061,16.984,16.984,0,0,0,.242,3.924C510.106,420.189,510.218,420.679,510.292,421.17Z"
      transform="translate(-508.861 -379.417)" />
    <path id="Path_63" data-name="Path 63"
      d="M512.351,397.76a17.246,17.246,0,0,1,1.621-2.279c-1.136,1.087-3.235.118-3.676-1.391a3.619,3.619,0,0,0,0,1.863,2.726,2.726,0,0,0,2.055,1.807Z"
      transform="translate(-509.025 -371.196)" />
  </g>
  <path id="Path_64" data-name="Path 64" d="M762.906,656.57s1.968,7.141,0,13.35S762.906,656.57,762.906,656.57Z"
    transform="translate(-338.124 -356.265)" opacity="0.1" />
  <path id="Path_65" data-name="Path 65" d="M775.926,668.3s.826,9.066-1.037,10.674S775.926,668.3,775.926,668.3Z"
    transform="translate(-342.761 -360.712)" opacity="0.1" />
  <line id="Line_1" data-name="Line 1" y1="0.621" x2="63.094" transform="translate(123.555 212.255)" fill="none"
    stroke="#15c366" stroke-miterlimit="10" stroke-width="2" />
  <line id="Line_2" data-name="Line 2" y1="0.615" x2="63.094" transform="translate(123.555 220.004)" fill="none"
    stroke="#15c366" stroke-miterlimit="10" stroke-width="2" />
  <line id="Line_3" data-name="Line 3" y1="0.621" x2="63.094" transform="translate(123.555 227.747)" fill="none"
    stroke="#15c366" stroke-miterlimit="10" stroke-width="2" />
</svg>