<svg xmlns="http://www.w3.org/2000/svg" width="100.474" height="43.01" viewBox="0 0 127.474 63.01">
  <g id="Group_101" data-name="Group 101" transform="translate(-522 -601)">
    <g id="Group_72" data-name="Group 72" transform="translate(544.136 601)">
      <path id="Path_212" data-name="Path 212" d="M395.35,491.907l6.633-14.407h14.263l6.628,14.407Z"
        transform="translate(-394.963 -477.252)" fill="#fff" />
      <path id="Path_213" data-name="Path 213"
        d="M415.694,477.5l.779,1.692,5.621,12.219h-26.75l5.626-12.219.779-1.692h13.945m.318-.5h-14.58l-.913,1.979L394.57,491.9h28.3l-5.943-12.923L416.012,477Z"
        transform="translate(-394.57 -477)" fill="#fff" />
    </g>
    <g id="Group_73" data-name="Group 73" transform="translate(568.257 601)">
      <path id="Path_214" data-name="Path 214"
        d="M450.608,491.907,443.98,477.5h51.674l3.9,8.483a4.178,4.178,0,0,1-3.8,5.923Z"
        transform="translate(-443.588 -477.252)" fill="#fff" />
      <path id="Path_215" data-name="Path 215"
        d="M495.1,477.5l.779,1.692,3.056,6.648a3.932,3.932,0,0,1-3.572,5.571h-45l-5.814-12.636-.585-1.275H495.1m.318-.5H443.19l.908,1.979,5.948,12.923H495.36a4.424,4.424,0,0,0,4.018-6.276l-3.056-6.648L495.415,477Z"
        transform="translate(-443.19 -477)" fill="#fff" />
    </g>
    <g id="Group_74" data-name="Group 74" transform="translate(579.325 625.051)">
      <path id="Path_216" data-name="Path 216" d="M472.908,540.387,466.28,525.98h15.86l6.633,14.407Z"
        transform="translate(-465.893 -525.732)" fill="#fff" />
      <path id="Path_217" data-name="Path 217"
        d="M481.589,525.976l6.4,13.911H472.674l-6.4-13.911h15.315m.318-.5H465.5l6.856,14.9h16.406l-6.856-14.9Z"
        transform="translate(-465.5 -525.48)" fill="#fff" />
    </g>
    <g id="Group_75" data-name="Group 75" transform="translate(522 649.102)">
      <path id="Path_218" data-name="Path 218"
        d="M350.73,588.867l6.628-14.407h15.86l-4.976,10.81a6.2,6.2,0,0,1-5.616,3.6Z"
        transform="translate(-350.343 -574.212)" fill="#fff" />
      <path id="Path_219" data-name="Path 219"
        d="M372.443,574.456l-4.812,10.458a5.95,5.95,0,0,1-5.388,3.453H350.729l6.4-13.911h15.315m.774-.5H356.811l-6.861,14.9h12.288a6.421,6.421,0,0,0,5.839-3.741l5.14-11.162Z"
        transform="translate(-349.95 -573.96)" fill="#fff" />
    </g>
    <g id="Group_76" data-name="Group 76" transform="translate(571.308 649.102)">
      <path id="Path_220" data-name="Path 220"
        d="M461.173,588.867a6.923,6.923,0,0,1-6.271-4.018L450.12,574.46h15.86l6.628,14.407Z"
        transform="translate(-449.733 -574.212)" fill="#fff" />
      <path id="Path_221" data-name="Path 221"
        d="M465.429,574.456l6.4,13.911H460.78a6.663,6.663,0,0,1-6.043-3.875l-4.619-10.036h15.31m.318-.5H449.34l4.941,10.741a7.154,7.154,0,0,0,6.494,4.162H472.6l-6.851-14.9Z"
        transform="translate(-449.34 -573.96)" fill="#fff" />
    </g>
    <g id="Group_77" data-name="Group 77" transform="translate(590.393 649.102)">
      <path id="Path_222" data-name="Path 222"
        d="M495.228,588.867,488.6,574.46h46.123a8.7,8.7,0,0,1,7.878,5.045l4.306,9.361Z"
        transform="translate(-488.208 -574.212)" fill="#fff" />
      <path id="Path_223" data-name="Path 223"
        d="M534.32,574.456a8.443,8.443,0,0,1,7.65,4.9l4.147,9.009H494.989l-6.4-13.911H534.32m0-.5H487.81l6.861,14.9h52.22l-4.47-9.714a8.92,8.92,0,0,0-8.1-5.189Z"
        transform="translate(-487.81 -573.96)" fill="#fff" />
    </g>
    <g id="Group_78" data-name="Group 78" transform="translate(522 601)">
      <path id="Path_224" data-name="Path 224"
        d="M350.73,540.009,379.5,477.5h14.263l.8,1.731-26.313,57.181a6.2,6.2,0,0,1-5.616,3.6Z"
        transform="translate(-350.343 -477.252)" fill="#fff" />
      <path id="Path_225" data-name="Path 225"
        d="M393.21,477.5l.685,1.483-5.854,12.715-2.257,4.906-1.955,4.247-6.856,14.9-4.212,9.148-5.135,11.162a5.95,5.95,0,0,1-5.388,3.453H350.724l6.534-14.2,4.207-9.148,6.856-14.9,4.212-9.148,5.948-12.923.779-1.692h13.95m.318-.5h-14.58l-.913,1.979L372.086,491.9l-4.212,9.148-6.856,14.9-4.207,9.148-6.861,14.9h12.288a6.421,6.421,0,0,0,5.839-3.741l5.135-11.162,4.212-9.148,6.856-14.9,1.955-4.247,2.257-4.906,5.948-12.923L393.528,477Z"
        transform="translate(-349.95 -477)" fill="#fff" />
    </g>
    <g id="Group_79" data-name="Group 79" transform="translate(550.084 601)">
      <path id="Path_226" data-name="Path 226"
        d="M439.5,540.009a6.923,6.923,0,0,1-6.271-4.018l-26.12-56.759.8-1.731h14.263l28.764,62.509Z"
        transform="translate(-406.837 -477.252)" fill="#fff" />
      <path id="Path_227" data-name="Path 227"
        d="M421.736,477.5l.779,1.692,5.943,12.923,4.212,9.148,6.856,14.9,4.207,9.148,6.539,14.2H439.223a6.663,6.663,0,0,1-6.043-3.875l-4.941-10.741-4.212-9.148-6.856-14.9-1.955-4.247-2.257-4.906-5.854-12.715.685-1.483h13.945m.318-.491h-14.58l-.913,1.979,5.948,12.923,2.257,4.906,1.955,4.247,6.856,14.9,4.212,9.148,4.941,10.741a7.154,7.154,0,0,0,6.494,4.162h11.822l-6.856-14.9-4.207-9.148-6.856-14.9-4.212-9.148-5.943-12.923L422.053,477Z"
        transform="translate(-406.56 -477)" fill="#fff" />
    </g>
    <g id="Group_80" data-name="Group 80" transform="translate(568.257 601)">
      <path id="Path_228" data-name="Path 228" d="M472.739,540.009,443.97,477.5h15.86l28.764,62.509Z"
        transform="translate(-443.583 -477.252)" fill="#fff" />
      <path id="Path_229" data-name="Path 229"
        d="M459.279,477.5l.779,1.692L466,492.111l4.212,9.148,6.856,14.9,4.207,9.148,6.539,14.2H472.5l-6.722-14.615-4.212-9.148-6.856-14.9-1.955-4.247L450.5,491.69l-5.948-12.923-.585-1.275h15.315M459.6,477H443.19l.908,1.979,5.948,12.923,2.257,4.906,1.955,4.247,6.856,14.9,4.212,9.148,6.861,14.9h16.406l-6.856-14.9-4.207-9.148-6.856-14.9-4.212-9.148-5.943-12.923L459.6,477Z"
        transform="translate(-443.19 -477)" fill="#fff" />
    </g>
    <g id="Group_81" data-name="Group 81" transform="translate(604.075 601)">
      <path id="Path_230" data-name="Path 230"
        d="M522.8,491.907,516.17,477.5h15.86l3.9,8.483a4.178,4.178,0,0,1-3.8,5.923Z"
        transform="translate(-515.783 -477.252)" fill="#fff" />
      <path id="Path_231" data-name="Path 231"
        d="M531.479,477.5l.779,1.692,3.056,6.648a3.932,3.932,0,0,1-3.572,5.571h-9.178l-5.814-12.636-.585-1.275h15.315m.318-.5H515.39l.908,1.979,5.948,12.923h9.5a4.424,4.424,0,0,0,4.018-6.276l-3.056-6.648L531.8,477Z"
        transform="translate(-515.39 -477)" fill="#fff" />
    </g>
    <g id="Group_82" data-name="Group 82" transform="translate(626.211 649.102)">
      <path id="Path_232" data-name="Path 232"
        d="M567.418,588.867,560.79,574.46h10.3a8.7,8.7,0,0,1,7.878,5.045l4.306,9.361Z"
        transform="translate(-560.403 -574.212)" fill="#fff" />
      <path id="Path_233" data-name="Path 233"
        d="M570.7,574.456a8.443,8.443,0,0,1,7.65,4.9l4.147,9.009H567.184l-6.4-13.911H570.7m0-.5H560.01l6.856,14.9h16.406l-4.47-9.714a8.92,8.92,0,0,0-8.1-5.189Z"
        transform="translate(-560.01 -573.96)" fill="#fff" />
    </g>
  </g>
</svg>